<svg xmlns="http://www.w3.org/2000/svg" width="32" height="32.241" viewBox="0 0 32 32.241"><defs><style>.a{fill:#414b5c;}</style></defs><path class="a" d="M0,32.241V20.017A14.189,14.189,0,0,1,4.617,9.552a4.5,4.5,0,0,1-.189-3.23c.838-2.636,3.877-4.169,4.006-4.233l.515-.254.336.465A11.55,11.55,0,0,1,11.1,6.139,14.186,14.186,0,0,1,14.24,5.78h6.927l.015-4.25A1.593,1.593,0,0,1,21.892.222,1.976,1.976,0,0,1,23.46.114a1.9,1.9,0,0,1,1.772,1.769c.007.04.016.087.025.13a2.468,2.468,0,0,1,1.887.684,2.429,2.429,0,0,1,.676,1.983,1.092,1.092,0,0,0,.284.9,1.089,1.089,0,0,0,.9.283c1.067-.091,1.351.852,1.506,1.363s.267.809.573.946a1.563,1.563,0,0,1,.888,1.118,1.518,1.518,0,0,1-.36,1.337l0,0a1.377,1.377,0,0,1-.8.427l-.054.008-4.287-.04v6.887a14.4,14.4,0,0,1-.144,1.936c2.971.547,4.716,3.984,4.793,4.143l.256.514-.465.337a11.368,11.368,0,0,1-6.766,2.222c-.333,0-.643-.017-.94-.041-.293.353-.6.7-.931,1.024a14.236,14.236,0,0,1-10.135,4.2ZM10.78,7.621a12.8,12.8,0,0,0-1.3.435l-.03.011a12.908,12.908,0,0,0-8.1,11.951V30.885H12.13a12.893,12.893,0,0,0,9.175-3.8c.274-.274.53-.562.778-.857l.262-.336a12.988,12.988,0,0,0,2.329-4.7c.023-.086.044-.174.065-.261.049-.2.1-.407.134-.612l.018-.1a13.164,13.164,0,0,0,.214-2.314V9.652l5.507.05h0a.163.163,0,0,0,.027-.141.21.21,0,0,0-.11-.152A2.54,2.54,0,0,1,29.21,7.618a4.152,4.152,0,0,0-.14-.4,2.45,2.45,0,0,1-1.926-.681,2.425,2.425,0,0,1-.675-1.982,1.1,1.1,0,0,0-.283-.9,1.1,1.1,0,0,0-.9-.283A1.263,1.263,0,0,1,23.9,2.135c-.086-.465-.116-.621-.666-.682l-.17-.042a.756.756,0,0,0-.459-.032c-.016.01-.052.077-.067.221l-.018,5.536H14.24A12.838,12.838,0,0,0,10.78,7.621ZM26.048,21.283A14.146,14.146,0,0,1,24.154,25.7a10,10,0,0,0,5.449-1.62c-.544-.872-1.813-2.589-3.524-2.909C26.07,21.209,26.057,21.245,26.048,21.283ZM30.705,9.805l.4.356-.4-.375ZM5.72,6.738a3.075,3.075,0,0,0,0,1.882c.095-.071.194-.131.291-.2.162-.115.324-.229.49-.337.185-.119.372-.23.562-.341s.367-.219.557-.319c.137-.072.279-.135.418-.2a14.142,14.142,0,0,1,1.778-.73A10.173,10.173,0,0,0,8.53,3.6,6.562,6.562,0,0,0,5.72,6.738Zm8.374,21.01a9.509,9.509,0,0,0-9.5-9.5V16.891A10.869,10.869,0,0,1,15.451,27.748ZM16.3,25.54a9.51,9.51,0,0,0-9.5-9.5V14.683A10.868,10.868,0,0,1,17.66,25.54ZM3.155,24.767a2.038,2.038,0,1,1,1.439.595A2.024,2.024,0,0,1,3.155,24.767Zm.96-1.919a.678.678,0,1,0,.959,0h0a.68.68,0,0,0-.959,0Zm14.3.581a9.51,9.51,0,0,0-9.5-9.5V12.574A10.868,10.868,0,0,1,19.769,23.43Zm2.209-2.209a9.509,9.509,0,0,0-9.5-9.5V10.365A10.868,10.868,0,0,1,21.978,21.221Z"/></svg>