<svg xmlns="http://www.w3.org/2000/svg" width="32" height="31.695" viewBox="0 0 32 31.695"><defs><style>.a{fill:#414b5c;}</style></defs><path class="a" d="M11.693,31.617l-.18-.016a15.123,15.123,0,0,1-3.458-.581A12.928,12.928,0,0,1,.648,24.738l-.022-.055c-1.184-3.408-.466-5.313.346-6.31,1.061-1.3,2.858-1.826,5.2-1.519a4.041,4.041,0,0,0,4.322-5.53c-1.752-4.432-.342-7.953,3.969-9.919C17.907-.165,21.016-.421,23.7.646c3.657,1.455,5.782,5.1,6.92,7.91a17.717,17.717,0,0,1,.91,10.875,14.713,14.713,0,0,1-9.139,10.615,23.513,23.513,0,0,1-8.806,1.649C12.731,31.695,12.074,31.65,11.693,31.617ZM1.928,19.154c-.862,1.06-.915,2.866-.149,5.091a11.928,11.928,0,0,0,6.664,5.6,13.993,13.993,0,0,0,3.18.524l.181.016a22.758,22.758,0,0,0,10.112-1.481,13.539,13.539,0,0,0,8.412-9.764,16.482,16.482,0,0,0-.855-10.121c-1.049-2.583-2.98-5.933-6.233-7.227-2.357-.938-5.14-.69-8.269.736-3.728,1.7-4.849,4.5-3.334,8.341a5.274,5.274,0,0,1-5.631,7.207A8.363,8.363,0,0,0,4.924,18,3.684,3.684,0,0,0,1.928,19.154Zm10.1,10.01-.175-.015a12.981,12.981,0,0,1-2.905-.473,10.628,10.628,0,0,1-5.981-4.968l-.036-.085c-.608-1.8-.613-3.256-.016-4.1.563-.794,1.784-1.116,3.411-.9a5.707,5.707,0,0,0,6.086-7.793c-1.969-4.98,1.671-6.639,2.867-7.185C21.255.928,25.657,2.936,28.337,9.536A15.9,15.9,0,0,1,29.5,14.817a.521.521,0,0,1,.005.113,14.456,14.456,0,0,1-.379,3.929c-.754,3.12-3.767,10.376-15.43,10.376C13.114,29.234,12.551,29.211,12.028,29.164ZM3.921,20.24c-.268.38-.365,1.349.165,2.942a9.514,9.514,0,0,0,5.25,4.32,12.033,12.033,0,0,0,2.627.416l.175.015c.487.043,1.013.066,1.561.066s1.071-.021,1.58-.053c-.039-.9-.9-1.69-2.168-2.566a7.849,7.849,0,0,1-3.29-5.307c-.036-.245-.075-.472-.112-.672a7.041,7.041,0,0,1-3.545.45,5.945,5.945,0,0,0-.777-.054A1.857,1.857,0,0,0,3.921,20.24Zm9.89,4.123c.95.655,2.6,1.8,2.7,3.472,7.266-.888,10.009-5.18,11.036-8.006-1.081-.294-4.037-.672-9.092,1.752a6.881,6.881,0,0,1-5.75.533,5.2,5.2,0,0,1-1.283-.78A6.579,6.579,0,0,0,13.811,24.363Zm-.948-7.487A6.911,6.911,0,0,1,10.94,18.76,4.678,4.678,0,0,0,13.2,20.982a5.733,5.733,0,0,0,4.721-.514c5.382-2.581,8.644-2.2,9.988-1.823l.02-.077a13.212,13.212,0,0,0,.355-3.389c-1.415-1-5.63.54-8.061,1.807a.686.686,0,0,1-.1.04,9.091,9.091,0,0,1-2.791.476,5.746,5.746,0,0,1-3.984-1.472A7.062,7.062,0,0,1,12.863,16.876Zm2.928-12.1c-1.864.85-3.586,2.181-2.233,5.608a6.949,6.949,0,0,1,.268,4.38c.47.6,2.18,2.279,5.872,1.105.817-.421,5.715-2.848,8.481-2.066a14.92,14.92,0,0,0-.986-3.8c-1.7-4.181-4.094-6.3-7.122-6.3A10.5,10.5,0,0,0,15.791,4.772Zm1.78,3.588a3.087,3.087,0,1,1,3.086,3.087A3.09,3.09,0,0,1,17.571,8.36Zm1.234,0a1.853,1.853,0,1,0,1.852-1.852A1.855,1.855,0,0,0,18.805,8.36Z"/></svg>